<svg width="132" height="32" viewBox="0 0 132 32" fill="none" xmlns="http://www.w3.org/2000/svg" role="img" aria-labelledby="base44-title">
  <title id="base44-title">Base44</title>
  <rect width="132" height="32" rx="6" fill="white"/>
  <g clip-path="url(#base44-icon-clip)">
    <circle cx="16" cy="16" r="10" fill="#FF6418"/>
    <rect x="5" y="15" width="22" height="1.6" fill="white"/>
    <rect x="5" y="18.1" width="22" height="1.6" fill="white"/>
    <rect x="5" y="21.2" width="22" height="1.6" fill="white"/>
  </g>
  <path d="M36.132 22H29.448V9.04H35.88C38.58 9.04 40.188 10.288 40.188 12.424C40.188 13.672 39.588 14.596 38.484 15.124C39.924 15.592 40.704 16.648 40.704 18.244C40.704 20.632 38.952 22 36.132 22ZM32.112 14.236H35.484C36.756 14.236 37.452 13.672 37.452 12.724C37.452 11.776 36.744 11.248 35.484 11.248H32.112V14.236ZM32.112 19.792H35.832C37.236 19.792 37.956 19.192 37.956 18.124C37.956 17.044 37.224 16.444 35.832 16.444H32.112V19.792Z" fill="#111111"/>
  <path d="M45.386 22.204C43.238 22.204 41.906 20.968 41.906 19.072C41.906 17.128 43.382 16.012 45.974 15.82L48.326 15.64V15.148C48.326 14.116 47.69 13.54 46.61 13.54C45.638 13.54 44.966 14.02 44.798 14.812H42.314C42.542 12.76 44.246 11.452 46.706 11.452C49.286 11.452 50.846 12.868 50.846 15.22V22H48.482L48.326 20.824C47.75 21.676 46.694 22.204 45.386 22.204ZM46.058 20.26C47.39 20.26 48.326 19.432 48.326 18.196V17.356L46.346 17.512C45.098 17.62 44.426 18.124 44.426 18.976C44.426 19.78 45.05 20.26 46.058 20.26Z" fill="#111111"/>
  <path d="M56.536 22.204C54.028 22.204 52.42 20.98 52.276 19.012H54.688C54.82 19.852 55.528 20.32 56.62 20.32C57.664 20.32 58.264 19.924 58.264 19.24C58.264 18.712 57.88 18.412 57.052 18.232L55.12 17.812C53.392 17.44 52.564 16.444 52.564 14.908C52.564 12.784 54.268 11.452 56.608 11.452C58.984 11.452 60.568 12.64 60.724 14.56H58.312C58.18 13.768 57.556 13.336 56.584 13.336C55.648 13.336 55.096 13.744 55.096 14.416C55.096 14.932 55.468 15.244 56.272 15.424L58.228 15.844C59.944 16.216 60.796 17.2 60.796 18.724C60.796 20.848 59.08 22.204 56.536 22.204Z" fill="#111111"/>
  <path d="M67.042 22.204C63.994 22.204 62.002 20.092 62.002 16.828C62.002 13.612 64.018 11.452 66.958 11.452C69.838 11.452 71.662 13.42 71.662 16.504V17.236H64.522C64.63 19.036 65.542 20.14 67.066 20.14C68.146 20.14 68.926 19.648 69.238 18.772H71.506C71.038 20.896 69.358 22.204 67.042 22.204ZM64.594 15.508H69.166C69.034 14.164 68.218 13.408 66.934 13.408C65.65 13.408 64.798 14.176 64.594 15.508Z" fill="#111111"/>
  <path d="M79.719 22V19.624H73.575V17.596L79.311 9.04H82.335V17.428H84.087V19.624H82.335V22H79.719ZM76.239 17.428H79.719V12.196L76.239 17.428Z" fill="#111111"/>
  <path d="M91.653 22V19.624H85.509V17.596L91.245 9.04H94.269V17.428H96.021V19.624H94.269V22H91.653ZM88.173 17.428H91.653V12.196L88.173 17.428Z" fill="#111111"/>
  <defs>
    <clipPath id="base44-icon-clip">
      <circle cx="16" cy="16" r="10"/>
    </clipPath>
  </defs>
</svg>
